<svg xmlns="http://www.w3.org/2000/svg" viewBox="0 0 456.07 156.03"><defs><style>.cls-1{fill:#2e3192;}.cls-2{fill:#0071bc;}.cls-3{font-size:60px;font-family:CenturyGothic-Bold, Century Gothic;font-weight:700;}</style></defs><g id="Layer_2" data-name="Layer 2"><g id="Layer_1-2" data-name="Layer 1"><rect class="cls-1" x="98.57" y="54.18" width="51.38" height="51.38" rx="9.25" transform="translate(-20.08 111.25) rotate(-45)"/><rect class="cls-1" x="54.78" y="97.84" width="51.38" height="51.38" rx="9.25" transform="translate(-63.78 93.08) rotate(-45)"/><path class="cls-1" d="M29.21,108.93,6,85.68A9.25,9.25,0,0,1,6,72.6L29.21,49.35a9.24,9.24,0,0,1,13.07,0L65.54,72.6a9.25,9.25,0,0,1,0,13.08L42.28,108.93a9.36,9.36,0,0,1-1.58,1.26,9.06,9.06,0,0,1-3,1.23,9.67,9.67,0,0,1-2,.22C32.64,111.64,29.66,109.3,29.21,108.93Z"/><rect class="cls-1" x="54.06" y="10.26" width="51.38" height="51.38" rx="9.25" transform="translate(-2.07 66.92) rotate(-45)"/><path class="cls-1" d="M50,118.76a44.89,44.89,0,0,0,15.66,8.88,48.54,48.54,0,0,0,14.53,2.15,44.8,44.8,0,0,0,14.53-2.15A44,44,0,0,0,109,119.76l-29-26Z"/><path class="cls-1" d="M120,51.76,100.79,66.21a5,5,0,0,1-7.07,0h0a5,5,0,0,1,0-7.07L110,40.76a43.44,43.44,0,0,0-15.29-8.83,44.75,44.75,0,0,0-14.52-2.14A51,51,0,0,0,50,39.76L67.57,60.14a5,5,0,0,1,0,7.07h0a5,5,0,0,1-7.07,0L41,50.76a40.7,40.7,0,0,0-8.67,14.5,42.8,42.8,0,0,0-2.14,14.53c0,6.2-.1,10.27,2.14,14.52,3.6,6.82,10.66,9.51,13.67,10.45,17.22-16,29.49-27.34,30.54-28.4a5.18,5.18,0,0,1,1-.76,5.49,5.49,0,0,1,5.31,0,4.75,4.75,0,0,1,1,.77c1.06,1.06,14.06,13.33,32.17,30.4a27.2,27.2,0,0,0,12-12.45c2.19-4.9,2.14-9.33,2.14-14.52A41.63,41.63,0,0,0,128,65.26,39.43,39.43,0,0,0,120,51.76Z"/><rect class="cls-2" x="95.32" y="50.73" width="51.38" height="51.38" rx="9.25" transform="translate(-18.59 107.95) rotate(-45)"/><rect class="cls-2" x="51.53" y="94.38" width="51.38" height="51.38" rx="9.25" transform="translate(-62.29 89.77) rotate(-45)"/><path class="cls-2" d="M26,105.48,2.71,82.23a9.25,9.25,0,0,1,0-13.08L26,45.9A9.25,9.25,0,0,1,39,45.9L62.29,69.15a9.25,9.25,0,0,1,0,13.08L39,105.48a9.47,9.47,0,0,1-1.59,1.26A9.64,9.64,0,0,1,34.51,108a10.57,10.57,0,0,1-2,.22C29.39,108.19,26.42,105.85,26,105.48Z"/><rect class="cls-2" x="50.81" y="6.81" width="51.38" height="51.38" rx="9.25" transform="translate(-0.57 63.61) rotate(-45)"/><path class="cls-2" d="M46.71,115.31a45,45,0,0,0,15.67,8.88,48.58,48.58,0,0,0,14.52,2.14,45,45,0,0,0,14.53-2.14,43.75,43.75,0,0,0,14.28-7.88l-29-26Z"/><path class="cls-2" d="M116.71,48.31,97.55,62.76a5,5,0,0,1-7.07,0h0a5,5,0,0,1,0-7.07l16.23-18.38a43.47,43.47,0,0,0-15.28-8.83A44.89,44.89,0,0,0,76.9,26.33a50.79,50.79,0,0,0-14.52,2.15,51.31,51.31,0,0,0-15.67,7.83L64.33,56.69a5,5,0,0,1,0,7.07h0a5,5,0,0,1-7.07,0L37.71,47.31a40.85,40.85,0,0,0-8.66,14.5A42.55,42.55,0,0,0,26.9,76.33c0,6.2-.1,10.28,2.15,14.53,3.6,6.82,10.65,9.51,13.66,10.45C59.93,85.35,72.2,74,73.26,72.91a4.88,4.88,0,0,1,1-.77,5.47,5.47,0,0,1,5.32,0,4.69,4.69,0,0,1,1,.77c1.06,1.06,14.06,13.33,32.16,30.4a27.18,27.18,0,0,0,12.05-12.46C127,86,126.9,81.53,126.9,76.33a41.77,41.77,0,0,0-2.14-14.52A39.28,39.28,0,0,0,116.71,48.31Z"/><text class="cls-3" transform="translate(166.85 94.58)">Magazine</text></g></g></svg>